<svg width="322" height="90" viewBox="0 0 322 100" fill="none" xmlns="http://www.w3.org/2000/svg">
<path d="M233 60V22.5H253V28.75H240.25V34.75H251.75V41H240.25V60H233ZM267.618 60.8333C259.16 60.8333 253.41 55.1667 253.41 47.25C253.41 39.7083 259.202 34.1667 266.493 34.1667C273.868 34.1667 279.41 39.7083 279.41 47.0833V49.625H264.16C262.785 49.625 261.535 49.4583 260.243 49.2083C260.91 52.5417 263.66 54.8333 267.785 54.8333C270.952 54.8333 273.535 53.375 275.16 51.5L276.743 58C274.243 59.875 270.993 60.8333 267.618 60.8333ZM260.077 44.8333C261.41 44.5417 262.743 44.375 264.16 44.375H268.577C270.118 44.375 271.493 44.5 272.743 44.75C271.91 41.75 269.618 39.9167 266.41 39.9167C263.327 39.9167 260.952 41.7917 260.077 44.8333ZM291.638 60.8333C288.221 60.8333 284.388 59.625 282.43 57.75L284.221 50.9167C285.805 53.125 288.971 55.0833 292.013 55.0833C294.055 55.0833 294.93 54.2083 294.93 53.0833C294.93 51.7917 293.763 51.3333 292.763 50.9583L289.263 49.625C286.888 48.7083 282.888 47.0833 282.888 42.2917C282.888 38 286.221 34.1667 292.096 34.1667C295.721 34.1667 299.138 35.625 300.596 37.125L298.93 43.7083C297.013 41.2917 294.221 39.9167 291.888 39.9167C290.096 39.9167 289.305 40.75 289.305 41.7083C289.305 42.4583 289.805 43.1667 291.221 43.7083L294.471 44.9167C297.305 45.9583 301.346 47.5 301.346 52.625C301.346 57.4583 297.388 60.8333 291.638 60.8333ZM308.436 60V40.75H303.77V35H308.561V26.6667H315.561V35H320.52V40.75H315.686V60H308.436Z" fill="#1A1A1A"/>
<mask id="path-2-outside-1_10_430" maskUnits="userSpaceOnUse" x="4" y="15" width="238" height="55" fill="black">
<rect fill="white" x="4" y="15" width="238" height="55"/>
<path d="M22.02 28.56C23.16 28.56 20.34 33.54 13.68 33.54C0.42 33.54 5.04 17.46 22.38 17.46C49.62 17.46 26.22 49.2 33.3 49.2C36.6 49.2 40.92 45.18 45.18 40.14C46.68 38.34 49.26 41.28 47.28 45.18C44.22 51.18 34.08 60 24.54 60C6.6 60 33.84 23.4 21.12 23.4C18 23.4 17.52 28.56 22.02 28.56ZM40.74 52.8L41.28 38.82C43.98 37.68 46.26 36.24 48.18 34.62C54.54 29.28 50.88 22.5 54.72 22.5C56.04 22.5 51.54 28.26 50.4 35.34C48.48 46.92 48.36 62.22 55.08 62.22C56.34 62.22 54.6 67.92 47.16 67.92C28.74 67.92 40.2 17.46 54.6 17.46C63.12 17.46 54.66 40.56 40.74 52.8ZM56.4005 31.44C56.8205 32.16 59.1605 33.12 60.6605 33.12C64.3805 33.12 67.7405 31.44 71.4605 31.44C78.3605 31.44 73.5005 39.78 73.0205 38.46C72.6005 37.2 72.0005 36.06 69.9005 35.88C65.9405 35.58 62.0405 38.04 58.8005 38.04C52.7405 38.04 55.7405 30.36 56.4005 31.44ZM66.1205 17.46C80.5805 17.46 62.8805 47.28 70.6805 47.28C74.4005 47.28 75.6005 44.28 76.1405 44.88C77.7005 46.56 71.0405 60 61.8005 60C44.5805 60 66.4205 22.08 60.0005 22.08C58.0205 22.08 59.9405 17.46 66.1205 17.46ZM79.095 20.7C78.135 20.7 79.695 17.46 84.855 17.46C101.235 17.46 82.275 55.92 88.275 55.92C89.235 55.92 87.375 60 80.775 60C64.455 60 86.055 20.7 79.095 20.7ZM86.895 47.82L97.995 44.04C99.555 45.66 102.015 47.82 105.255 47.82C108.795 47.82 110.595 44.28 111.195 44.88C112.695 46.56 107.595 60 99.015 60C87.855 60 92.175 47.82 86.895 47.82ZM85.395 40.86C88.335 35.82 92.415 31.44 100.875 31.44C115.155 31.44 108.675 52.74 85.515 47.82C83.715 47.46 86.175 42.9 87.855 43.62C95.835 47.04 98.835 37.56 93.735 37.56C91.275 37.56 89.415 40.62 88.035 42.72C87.495 43.56 84.855 41.76 85.395 40.86ZM135.557 29.16C148.937 29.16 138.557 47.28 142.937 47.28C145.217 47.28 146.357 44.28 146.897 44.88C148.457 46.56 142.037 60 133.457 60C118.817 60 135.857 33.78 129.437 33.78C127.457 33.78 129.377 29.16 135.557 29.16ZM134.117 37.56C134.837 38.7 131.177 42.72 130.817 41.46C130.397 39.78 129.497 38.16 127.697 38.16C123.197 38.16 122.117 47.82 125.177 47.82C127.457 47.82 129.197 45.24 129.857 44.52C131.777 42.54 131.957 50.28 130.397 52.44C128.057 55.68 123.677 60 118.577 60C105.797 60 107.417 31.44 123.497 31.44C128.657 31.44 132.077 34.32 134.117 37.56ZM151.135 30.48C155.395 32.52 156.355 31.44 161.275 31.44C176.335 31.44 166.135 47.28 171.715 47.28C173.995 47.28 175.135 44.28 175.675 44.88C177.235 46.56 170.815 60 162.235 60C147.595 60 162.595 37.56 157.315 37.56C155.995 37.56 154.195 37.8 152.455 37.44C144.595 35.76 145.915 24.54 150.355 24.54C154.615 24.54 154.555 33 153.895 35.4C153.475 36.78 150.835 30.3 151.135 30.48ZM149.875 34.5C150.175 33.06 154.255 34.02 153.895 35.4C152.515 41.04 149.995 48.48 143.815 53.4C142.675 54.3 139.495 50.88 140.635 50.1C147.475 45.42 149.035 38.58 149.875 34.5ZM188.306 31.44C201.926 31.44 200.606 44.28 193.706 44.28C189.326 44.28 188.906 40.2 190.106 40.2C192.326 40.2 192.026 37.62 189.806 37.62C188.126 37.62 187.346 39.12 187.346 40.32C187.346 46.62 197.786 45.3 197.786 51.54C197.786 57.12 190.586 60 183.086 60C168.626 60 168.866 44.64 176.726 44.64C179.966 44.64 181.106 47.46 179.786 47.46C178.226 47.46 178.706 50.88 181.526 50.88C183.446 50.88 183.986 49.8 183.986 48.9C183.986 45.72 176.486 44.28 176.486 38.94C176.486 34.62 181.346 31.44 188.306 31.44ZM205.54 20.7C204.58 20.7 206.14 17.46 211.3 17.46C227.68 17.46 208.72 55.92 214.72 55.92C215.68 55.92 213.82 60 207.22 60C190.9 60 212.5 20.7 205.54 20.7ZM211.72 39.48C214.36 33.54 219.58 31.44 224.5 31.44C239.56 31.44 229.36 47.28 234.94 47.28C237.22 47.28 238.36 44.28 238.9 44.88C240.46 46.56 234.04 60 225.46 60C210.82 60 225.82 37.56 220.54 37.56C217.84 37.56 215.5 43.62 214 49.38C213.64 50.7 211.18 40.74 211.72 39.48Z"/>
</mask>
<path d="M22.02 28.56C23.16 28.56 20.34 33.54 13.68 33.54C0.42 33.54 5.04 17.46 22.38 17.46C49.62 17.46 26.22 49.2 33.3 49.2C36.6 49.2 40.92 45.18 45.18 40.14C46.68 38.34 49.26 41.28 47.28 45.18C44.22 51.18 34.08 60 24.54 60C6.6 60 33.84 23.4 21.12 23.4C18 23.4 17.52 28.56 22.02 28.56ZM40.74 52.8L41.28 38.82C43.98 37.68 46.26 36.24 48.18 34.62C54.54 29.28 50.88 22.5 54.72 22.5C56.04 22.5 51.54 28.26 50.4 35.34C48.48 46.92 48.36 62.22 55.08 62.22C56.34 62.22 54.6 67.92 47.16 67.92C28.74 67.92 40.2 17.46 54.6 17.46C63.12 17.46 54.66 40.56 40.74 52.8ZM56.4005 31.44C56.8205 32.16 59.1605 33.12 60.6605 33.12C64.3805 33.12 67.7405 31.44 71.4605 31.44C78.3605 31.44 73.5005 39.78 73.0205 38.46C72.6005 37.2 72.0005 36.06 69.9005 35.88C65.9405 35.58 62.0405 38.04 58.8005 38.04C52.7405 38.04 55.7405 30.36 56.4005 31.44ZM66.1205 17.46C80.5805 17.46 62.8805 47.28 70.6805 47.28C74.4005 47.28 75.6005 44.28 76.1405 44.88C77.7005 46.56 71.0405 60 61.8005 60C44.5805 60 66.4205 22.08 60.0005 22.08C58.0205 22.08 59.9405 17.46 66.1205 17.46ZM79.095 20.7C78.135 20.7 79.695 17.46 84.855 17.46C101.235 17.46 82.275 55.92 88.275 55.92C89.235 55.92 87.375 60 80.775 60C64.455 60 86.055 20.7 79.095 20.7ZM86.895 47.82L97.995 44.04C99.555 45.66 102.015 47.82 105.255 47.82C108.795 47.82 110.595 44.28 111.195 44.88C112.695 46.56 107.595 60 99.015 60C87.855 60 92.175 47.82 86.895 47.82ZM85.395 40.86C88.335 35.82 92.415 31.44 100.875 31.44C115.155 31.44 108.675 52.74 85.515 47.82C83.715 47.46 86.175 42.9 87.855 43.62C95.835 47.04 98.835 37.56 93.735 37.56C91.275 37.56 89.415 40.62 88.035 42.72C87.495 43.56 84.855 41.76 85.395 40.86ZM135.557 29.16C148.937 29.16 138.557 47.28 142.937 47.28C145.217 47.28 146.357 44.28 146.897 44.88C148.457 46.56 142.037 60 133.457 60C118.817 60 135.857 33.78 129.437 33.78C127.457 33.78 129.377 29.16 135.557 29.16ZM134.117 37.56C134.837 38.7 131.177 42.72 130.817 41.46C130.397 39.78 129.497 38.16 127.697 38.16C123.197 38.16 122.117 47.82 125.177 47.82C127.457 47.82 129.197 45.24 129.857 44.52C131.777 42.54 131.957 50.28 130.397 52.44C128.057 55.68 123.677 60 118.577 60C105.797 60 107.417 31.44 123.497 31.44C128.657 31.44 132.077 34.32 134.117 37.56ZM151.135 30.48C155.395 32.52 156.355 31.44 161.275 31.44C176.335 31.44 166.135 47.28 171.715 47.28C173.995 47.28 175.135 44.28 175.675 44.88C177.235 46.56 170.815 60 162.235 60C147.595 60 162.595 37.56 157.315 37.56C155.995 37.56 154.195 37.8 152.455 37.44C144.595 35.76 145.915 24.54 150.355 24.54C154.615 24.54 154.555 33 153.895 35.4C153.475 36.78 150.835 30.3 151.135 30.48ZM149.875 34.5C150.175 33.06 154.255 34.02 153.895 35.4C152.515 41.04 149.995 48.48 143.815 53.4C142.675 54.3 139.495 50.88 140.635 50.1C147.475 45.42 149.035 38.58 149.875 34.5ZM188.306 31.44C201.926 31.44 200.606 44.28 193.706 44.28C189.326 44.28 188.906 40.2 190.106 40.2C192.326 40.2 192.026 37.62 189.806 37.62C188.126 37.62 187.346 39.12 187.346 40.32C187.346 46.62 197.786 45.3 197.786 51.54C197.786 57.12 190.586 60 183.086 60C168.626 60 168.866 44.64 176.726 44.64C179.966 44.64 181.106 47.46 179.786 47.46C178.226 47.46 178.706 50.88 181.526 50.88C183.446 50.88 183.986 49.8 183.986 48.9C183.986 45.72 176.486 44.28 176.486 38.94C176.486 34.62 181.346 31.44 188.306 31.44ZM205.54 20.7C204.58 20.7 206.14 17.46 211.3 17.46C227.68 17.46 208.72 55.92 214.72 55.92C215.68 55.92 213.82 60 207.22 60C190.9 60 212.5 20.7 205.54 20.7ZM211.72 39.48C214.36 33.54 219.58 31.44 224.5 31.44C239.56 31.44 229.36 47.28 234.94 47.28C237.22 47.28 238.36 44.28 238.9 44.88C240.46 46.56 234.04 60 225.46 60C210.82 60 225.82 37.56 220.54 37.56C217.84 37.56 215.5 43.62 214 49.38C213.64 50.7 211.18 40.74 211.72 39.48Z" fill="#FFD43B"/>
<path d="M45.18 40.14L46.7075 41.4311L46.7164 41.4204L45.18 40.14ZM47.28 45.18L49.0617 46.0887L49.0633 46.0854L47.28 45.18ZM40.74 52.8L38.7415 52.7228L38.5617 57.3787L42.0607 54.3019L40.74 52.8ZM41.28 38.82L40.5021 36.9775L39.3306 37.4721L39.2815 38.7428L41.28 38.82ZM48.18 34.62L46.894 33.0883L46.8903 33.0914L48.18 34.62ZM50.4 35.34L52.3731 35.6671L52.3746 35.6579L50.4 35.34ZM22.02 30.56C21.7214 30.56 21.2571 30.4711 20.8461 30.0995C20.4457 29.7375 20.317 29.3067 20.2813 29.0501C20.2221 28.6257 20.3629 28.3998 20.3077 28.5238C20.2454 28.6636 19.9941 29.0662 19.4433 29.5578C18.3898 30.498 16.4864 31.54 13.68 31.54V35.54C17.5336 35.54 20.3702 34.092 22.1067 32.5422C22.9509 31.7888 23.6071 30.9464 23.9611 30.1524C24.114 29.8095 24.3401 29.1946 24.243 28.4978C24.1882 28.1051 24.0097 27.5673 23.5287 27.1324C23.037 26.6878 22.4611 26.56 22.02 26.56V30.56ZM13.68 31.54C10.7294 31.54 9.24077 30.6506 8.59161 29.8074C7.96682 28.9959 7.7756 27.7796 8.40278 26.2653C9.67234 23.2001 14.2681 19.46 22.38 19.46V15.46C13.1519 15.46 6.76766 19.7599 4.70722 24.7347C3.6694 27.2404 3.72568 30.0441 5.42214 32.2476C7.09423 34.4194 10.0006 35.54 13.68 35.54V31.54ZM22.38 19.46C28.8395 19.46 31.6201 21.3245 32.8579 23.4322C34.2089 25.7326 34.2022 29.055 33.4376 32.9442C32.6643 36.8776 31.3482 40.4772 30.5017 43.7381C30.1206 45.206 29.7929 46.7723 29.9262 48.0446C29.9962 48.7125 30.2165 49.5539 30.8702 50.2319C31.568 50.9554 32.4715 51.2 33.3 51.2V47.2C33.2435 47.2 33.5002 47.1966 33.7495 47.4552C33.9549 47.6682 33.9254 47.8278 33.9044 47.6278C33.8559 47.1643 33.9819 46.2509 34.3733 44.7432C35.0718 42.0528 36.5757 37.7174 37.3624 33.7158C38.1578 29.67 38.4511 25.0574 36.3071 21.4066C34.0499 17.563 29.5405 15.46 22.38 15.46V19.46ZM33.3 51.2C35.6761 51.2 38.0451 49.8046 40.1364 48.1161C42.3056 46.3647 44.5452 43.9893 46.7075 41.4311L43.6525 38.8489C41.5548 41.3307 39.5044 43.4853 37.6236 45.0039C35.6649 46.5854 34.2239 47.2 33.3 47.2V51.2ZM46.7164 41.4204C46.728 41.4066 46.6724 41.4776 46.5261 41.5363C46.3716 41.5982 46.1941 41.6139 46.0313 41.5817C45.7294 41.522 45.7105 41.365 45.8098 41.5343C45.9814 41.8269 46.2455 42.7997 45.4967 44.2746L49.0633 46.0854C50.2945 43.6603 50.2586 41.2131 49.2602 39.5107C48.7745 38.6825 47.9531 37.8843 46.8074 37.6577C45.5479 37.4086 44.4033 37.9479 43.6436 38.8596L46.7164 41.4204ZM45.4983 44.2713C44.1503 46.9145 41.0996 50.3926 37.1725 53.2161C33.245 56.0399 28.7316 58 24.54 58V62C29.8884 62 35.215 59.5501 39.5075 56.4639C43.8004 53.3774 47.3497 49.4455 49.0617 46.0886L45.4983 44.2713ZM24.54 58C22.6231 58 21.6786 57.5154 21.181 57.0159C20.6659 56.4988 20.2943 55.6307 20.2236 54.1836C20.0769 51.185 21.261 46.9693 22.7743 42.3189C24.2165 37.8871 25.9614 33.0564 26.4782 29.3985C26.7329 27.595 26.7653 25.6423 25.9669 24.0681C25.54 23.2262 24.8884 22.5199 23.9973 22.0456C23.1301 21.584 22.1468 21.4 21.12 21.4V25.4C21.6832 25.4 21.9777 25.502 22.1177 25.5765C22.2338 25.6383 22.3188 25.7183 22.3994 25.8773C22.6161 26.3046 22.7474 27.2112 22.5175 28.839C22.0648 32.0436 20.506 36.3629 18.9707 41.0811C17.5065 45.5807 16.0394 50.515 16.2283 54.3789C16.3254 56.3631 16.8683 58.3543 18.3471 59.8388C19.8433 61.3408 21.9719 62 24.54 62V58ZM21.12 21.4C18.207 21.4 16.6247 23.8645 16.7142 26.0613C16.7605 27.2006 17.2334 28.3691 18.2064 29.2423C19.1841 30.1196 20.5074 30.56 22.02 30.56V26.56C21.2826 26.56 20.9784 26.3554 20.878 26.2652C20.7729 26.1709 20.717 26.0494 20.7108 25.8987C20.704 25.7294 20.7642 25.5849 20.8319 25.5056C20.8732 25.4573 20.9368 25.4 21.12 25.4V21.4ZM42.7385 52.8772L43.2785 38.8972L39.2815 38.7428L38.7415 52.7228L42.7385 52.8772ZM42.0579 40.6625C44.9452 39.4434 47.3974 37.8971 49.4697 36.1486L46.8903 33.0914C45.1226 34.5829 43.0148 35.9166 40.5021 36.9775L42.0579 40.6625ZM49.466 36.1517C53.2018 33.0151 53.9857 29.3953 54.3722 26.8588C54.4733 26.1952 54.5293 25.7398 54.611 25.2673C54.6892 24.8147 54.7593 24.5562 54.8217 24.4047C54.876 24.2729 54.8726 24.3504 54.744 24.4404C54.6071 24.5362 54.5394 24.5 54.72 24.5V20.5C53.9406 20.5 53.1473 20.6757 52.4507 21.1631C51.7624 21.6448 51.3652 22.2937 51.1233 22.8809C50.8895 23.4485 50.7608 24.0567 50.6693 24.5864C50.5813 25.0962 50.4967 25.7386 50.4178 26.2562C50.0843 28.4447 49.5182 30.8849 46.894 33.0883L49.466 36.1517ZM54.72 24.5C54.4453 24.5 53.8723 24.4158 53.4107 23.8996C52.9906 23.4299 52.9611 22.9272 52.9602 22.7736C52.9586 22.5202 53.0297 22.449 52.8992 22.7831C52.6793 23.3462 52.2677 24.1589 51.6754 25.4081C50.5587 27.763 49.043 31.1869 48.4254 35.0221L52.3746 35.6579C52.897 32.4131 54.2013 29.417 55.2896 27.1219C55.7998 26.0461 56.3369 24.9763 56.6252 24.2381C56.7488 23.9216 56.9638 23.3451 56.9601 22.749C56.9581 22.4241 56.891 21.7908 56.3924 21.2332C55.8522 20.6292 55.1597 20.5 54.72 20.5V24.5ZM48.4269 35.0129C47.4514 40.8963 46.9145 47.8147 47.5116 53.3375C47.8079 56.078 48.4015 58.6646 49.4984 60.625C50.6339 62.6547 52.4568 64.22 55.08 64.22V60.22C54.3432 60.22 53.6611 59.8728 52.9891 58.6719C52.2785 57.4017 51.7621 55.4395 51.4884 52.9075C50.9455 47.8853 51.4286 41.3637 52.3731 35.6671L48.4269 35.0129ZM55.08 64.22C54.7605 64.22 54.3913 64.1216 54.0664 63.8734C53.7582 63.6379 53.605 63.3565 53.5341 63.1675C53.4098 62.8364 53.4737 62.6419 53.4559 62.735C53.4321 62.8597 53.2897 63.266 52.8566 63.777C52.0512 64.7276 50.3272 65.92 47.16 65.92V69.92C51.4328 69.92 54.2988 68.2624 55.9084 66.363C56.6828 65.449 57.2042 64.4303 57.3847 63.4863C57.4691 63.045 57.5203 62.4052 57.2791 61.7624C57.1497 61.4175 56.912 61.0136 56.4945 60.6947C56.0602 60.3629 55.557 60.22 55.08 60.22V64.22ZM47.16 65.92C45.3634 65.92 44.0316 65.3244 42.9936 64.3167C41.9114 63.2663 41.0429 61.6597 40.456 59.5091C39.2763 55.1859 39.3853 49.2148 40.5383 43.0582C41.6865 36.9274 43.8249 30.8528 46.4915 26.3662C47.8253 24.1219 49.2456 22.3525 50.6709 21.1646C52.0936 19.9788 53.4099 19.46 54.6 19.46V15.46C52.1901 15.46 49.9983 16.5181 48.11 18.0918C46.2242 19.6635 44.5306 21.8362 43.0529 24.3226C40.0963 29.2972 37.821 35.8376 36.6067 42.3218C35.3972 48.7802 35.195 55.4241 36.5971 60.5621C37.3012 63.1422 38.4468 65.4778 40.2075 67.1869C42.0122 68.9387 44.3516 69.92 47.16 69.92V65.92ZM54.6 19.46C55.1666 19.46 55.3743 19.6265 55.4973 19.7713C55.6809 19.9874 55.917 20.4702 55.9925 21.4192C56.145 23.3356 55.5733 26.2744 54.2166 29.8264C51.5278 36.8664 46.1064 45.418 39.4193 51.2981L42.0607 54.3019C49.2936 47.942 55.0622 38.8236 57.9534 31.2536C59.3867 27.5006 60.2025 23.8994 59.98 21.102C59.868 19.6942 59.476 18.2767 58.5458 17.1816C57.5551 16.0154 56.1634 15.46 54.6 15.46V19.46ZM56.4005 31.44L58.128 30.4323L58.1177 30.4146L58.107 30.3971L56.4005 31.44ZM73.0205 38.46L71.1231 39.0925L71.1316 39.1181L71.1409 39.1435L73.0205 38.46ZM69.9005 35.88L70.0713 33.8873L70.0614 33.8865L70.0516 33.8857L69.9005 35.88ZM76.1405 44.88L74.6539 46.2179L74.6643 46.2295L74.6749 46.2409L76.1405 44.88ZM54.6729 32.4477C55.0291 33.0584 55.5972 33.4646 55.962 33.6957C56.3921 33.9682 56.8865 34.2085 57.3827 34.407C58.3402 34.79 59.5642 35.12 60.6605 35.12V31.12C60.2568 31.12 59.5607 30.97 58.8683 30.693C58.5394 30.5615 58.2763 30.4268 58.1027 30.3168C57.8637 30.1654 57.9818 30.1816 58.128 30.4323L54.6729 32.4477ZM60.6605 35.12C62.7923 35.12 64.7878 34.6375 66.5222 34.226C68.3278 33.7975 69.8723 33.44 71.4605 33.44V29.44C69.3286 29.44 67.3331 29.9225 65.5987 30.334C63.7931 30.7625 62.2486 31.12 60.6605 31.12V35.12ZM71.4605 33.44C72.8006 33.44 73.0157 33.8277 73.0182 33.8314C73.0916 33.9415 73.2091 34.2963 73.0526 35.0249C72.9049 35.7123 72.5799 36.3871 72.3084 36.7769C72.1431 37.0143 72.132 36.9534 72.3263 36.8339C72.4006 36.7882 72.8618 36.507 73.5303 36.6337C74.3818 36.7951 74.7761 37.4356 74.9001 37.7765L71.1409 39.1435C71.3248 39.6494 71.8133 40.3794 72.7854 40.5637C73.5745 40.7133 74.1825 40.3882 74.4222 40.2408C74.9472 39.9178 75.3407 39.422 75.5907 39.0631C76.1498 38.2604 76.6985 37.0977 76.9633 35.8651C77.2193 34.6737 77.2881 33.026 76.3471 31.6136C75.3352 30.0948 73.5704 29.44 71.4605 29.44V33.44ZM74.9178 37.8275C74.6871 37.1354 74.3139 36.16 73.5047 35.3508C72.6406 34.4867 71.4892 34.0088 70.0713 33.8873L69.7297 37.8727C70.4117 37.9312 70.6103 38.1133 70.6763 38.1792C70.7971 38.3 70.9338 38.5246 71.1231 39.0925L74.9178 37.8275ZM70.0516 33.8857C67.6518 33.7039 65.3561 34.3619 63.4918 34.9361C61.46 35.5619 60.0402 36.04 58.8005 36.04V40.04C60.8007 40.04 62.9509 39.2881 64.6692 38.7589C66.5549 38.1781 68.1891 37.7561 69.7494 37.8743L70.0516 33.8857ZM58.8005 36.04C57.7307 36.04 57.4296 35.7226 57.3399 35.61C57.1906 35.4228 57.0524 35.0439 57.0787 34.419C57.1045 33.8055 57.282 33.2186 57.4396 32.8982C57.5421 32.6897 57.532 32.8017 57.3146 32.9755C57.2114 33.058 56.7953 33.3685 56.1438 33.3332C55.358 33.2906 54.8863 32.7977 54.6939 32.4829L58.107 30.3971C57.8321 29.9473 57.2596 29.3878 56.3603 29.3391C55.5953 29.2976 55.0531 29.6623 54.8165 29.8515C54.3323 30.2387 54.027 30.7734 53.8501 31.1331C53.4489 31.9489 53.1315 33.0795 53.0822 34.251C53.0335 35.4111 53.2403 36.8847 54.2123 38.1037C55.2438 39.3974 56.8403 40.04 58.8005 40.04V36.04ZM66.1205 19.46C67.5806 19.46 68.3632 19.8297 68.8176 20.2346C69.2892 20.6548 69.6679 21.3454 69.8672 22.4687C70.2843 24.82 69.774 28.1762 68.9448 31.9397C68.1626 35.4899 67.0769 39.4598 66.7251 42.3816C66.5514 43.8243 66.4972 45.3885 66.9543 46.6704C67.2 47.3593 67.6243 48.0555 68.3316 48.5664C69.0441 49.081 69.8669 49.28 70.6805 49.28V45.28C70.5191 45.28 70.5661 45.246 70.6738 45.3238C70.7764 45.3979 70.7671 45.4534 70.722 45.327C70.5976 44.9781 70.5336 44.2126 70.6964 42.8597C71.0178 40.1902 71.9908 36.7051 72.8511 32.8003C73.6644 29.1088 74.3804 25.01 73.8057 21.77C73.509 20.0977 72.8372 18.4586 71.4786 17.2481C70.1027 16.0221 68.2754 15.46 66.1205 15.46V19.46ZM70.6805 49.28C73.1515 49.28 74.8136 48.259 75.8626 47.4085C76.115 47.2039 76.3316 47.0094 76.4975 46.8595C76.6851 46.6899 76.7679 46.6149 76.8306 46.5648C76.935 46.4814 76.7623 46.6512 76.4215 46.7426C76.206 46.8004 75.8747 46.8409 75.4933 46.7344C75.1048 46.626 74.8273 46.4106 74.6539 46.2179L77.6271 43.5421C77.3862 43.2744 77.036 43.0121 76.5687 42.8817C76.1086 42.7533 75.6926 42.7967 75.3853 42.8791C74.861 43.0198 74.4768 43.3255 74.3347 43.439C74.1509 43.5858 73.952 43.7685 73.8154 43.8919C73.6571 44.035 73.5072 44.1686 73.3434 44.3015C72.7273 44.801 71.9294 45.28 70.6805 45.28V49.28ZM74.6749 46.2409C74.427 45.9739 74.3771 45.7221 74.3702 45.6842C74.3617 45.6374 74.3747 45.672 74.3604 45.8204C74.3318 46.1177 74.2214 46.6042 73.9799 47.2619C73.503 48.5608 72.6237 50.2334 71.4092 51.8852C68.9089 55.2856 65.4536 58 61.8005 58V62C67.3873 62 71.882 57.9944 74.6318 54.2548C76.0422 52.3366 77.113 50.3342 77.7348 48.6406C78.0427 47.802 78.2689 46.9629 78.342 46.2037C78.3785 45.8238 78.3836 45.3974 78.3058 44.9691C78.2296 44.5498 78.049 43.9961 77.6061 43.5191L74.6749 46.2409ZM61.8005 58C60.0255 58 59.0367 57.5218 58.4387 56.9387C57.8087 56.3244 57.3427 55.3309 57.1398 53.8105C56.7235 50.691 57.5289 46.3012 58.7841 41.5509C59.4007 39.2175 60.1016 36.8793 60.7672 34.6504C61.4273 32.4402 62.0588 30.3172 62.5106 28.4833C62.9489 26.7037 63.279 24.9691 63.2124 23.6114C63.1794 22.9402 63.0409 22.0824 62.521 21.3491C61.908 20.4844 60.9756 20.08 60.0005 20.08V24.08C59.8279 24.08 59.4772 23.9718 59.2579 23.6626C59.1319 23.4848 59.1992 23.4417 59.2172 23.8074C59.2523 24.5234 59.0639 25.7513 58.6266 27.5267C58.2027 29.2478 57.6015 31.2723 56.9345 33.5058C56.2731 35.7207 55.5527 38.1225 54.9168 40.5291C53.667 45.2588 52.6424 50.349 53.1749 54.3395C53.4464 56.3741 54.1494 58.3431 55.6462 59.8026C57.1749 61.2932 59.2705 62 61.8005 62V58ZM60.0005 20.08C60.1432 20.08 60.5224 20.1301 60.8636 20.4752C61.1978 20.8131 61.2516 21.1879 61.2523 21.3495C61.2534 21.5942 61.1712 21.4713 61.5093 21.0828C62.0874 20.4184 63.5334 19.46 66.1205 19.46V15.46C62.5275 15.46 59.9235 16.8116 58.4917 18.4572C57.8247 19.2237 57.2476 20.2558 57.2524 21.3668C57.2549 21.9615 57.4354 22.6972 58.0194 23.2878C58.6105 23.8855 59.3627 24.08 60.0005 24.08V20.08ZM86.895 47.82L86.2503 45.9268L86.895 49.82V47.82ZM97.995 44.04L99.4356 42.6527L98.5538 41.7369L97.3503 42.1468L97.995 44.04ZM111.195 44.88L112.687 43.548L112.649 43.5058L112.609 43.4658L111.195 44.88ZM85.395 40.86L87.11 41.889L87.1163 41.8784L87.1226 41.8677L85.395 40.86ZM85.515 47.82L85.9306 45.8637L85.9189 45.8612L85.9072 45.8588L85.515 47.82ZM87.855 43.62L87.0672 45.4583L87.855 43.62ZM88.035 42.72L86.3636 41.6216L86.3581 41.63L86.3526 41.6385L88.035 42.72ZM79.095 18.7C79.6274 18.7 80.3509 18.9971 80.6846 19.7525C80.9246 20.2957 80.7939 20.7226 80.7787 20.7728C80.7274 20.9426 80.7153 20.8346 81.0057 20.5775C81.5101 20.131 82.7 19.46 84.855 19.46V15.46C81.85 15.46 79.6799 16.409 78.3543 17.5825C77.7297 18.1354 77.1851 18.8374 76.95 19.6147C76.843 19.9686 76.7076 20.6487 77.0258 21.369C77.4378 22.3016 78.3226 22.7 79.095 22.7V18.7ZM84.855 19.46C86.4853 19.46 87.4359 19.9236 88.0507 20.533C88.7095 21.186 89.215 22.2381 89.4848 23.8081C90.0348 27.0079 89.4688 31.484 88.4971 36.2939C88.0188 38.6612 87.4597 41.0337 86.9282 43.2931C86.4011 45.5345 85.8962 47.685 85.5472 49.5411C85.2074 51.3487 84.9717 53.087 85.0842 54.4338C85.1395 55.0967 85.2958 55.9211 85.7826 56.6253C86.3599 57.4605 87.2594 57.92 88.275 57.92V53.92C88.5406 53.92 88.8851 54.0791 89.073 54.3508C89.1704 54.4917 89.1027 54.4898 89.0703 54.1011C89.0072 53.3446 89.1404 52.0782 89.4784 50.2801C89.8073 48.5306 90.2891 46.4746 90.822 44.2089C91.3506 41.9613 91.9249 39.5263 92.4179 37.0861C93.3886 32.281 94.1165 27.1421 93.427 23.1306C93.0772 21.095 92.3297 19.1424 90.8667 17.6922C89.3597 16.1983 87.3197 15.46 84.855 15.46V19.46ZM88.275 57.92C87.9717 57.92 87.5559 57.8334 87.1751 57.5299C86.7996 57.2307 86.6284 56.8564 86.5597 56.5842C86.4947 56.3263 86.51 56.1264 86.5223 56.0334C86.5358 55.9319 86.5573 55.872 86.5621 55.8593C86.5673 55.8452 86.4575 56.0934 86.0457 56.4525C85.2823 57.118 83.6512 58 80.775 58V62C84.4988 62 87.0977 60.842 88.6743 59.4675C89.4325 58.8066 90.0202 58.0348 90.3104 57.2557C90.4388 56.9112 90.6117 56.2939 90.4384 55.6064C90.3416 55.2227 90.1184 54.7607 89.6679 54.4017C89.212 54.0384 88.6982 53.92 88.275 53.92V57.92ZM80.775 58C79.1627 58 78.3018 57.5325 77.7771 56.96C77.1973 56.3274 76.7624 55.2763 76.5958 53.6549C76.2576 50.3649 77.1145 45.7704 78.3637 40.8413C79.5583 36.1277 81.1603 30.9569 81.9542 27.2606C82.3518 25.409 82.6274 23.6039 82.4862 22.1899C82.4154 21.4813 82.2187 20.6181 81.649 19.8992C80.9984 19.0782 80.0677 18.7 79.095 18.7V22.7C78.9923 22.7 78.7085 22.6289 78.5141 22.3835C78.4006 22.2403 78.4694 22.2214 78.506 22.5875C78.5794 23.3227 78.437 24.5878 78.0433 26.4207C77.2547 30.0931 75.7817 34.7473 74.4863 39.8587C73.2455 44.7546 72.1974 49.9851 72.6167 54.0639C72.8288 56.1269 73.4383 58.146 74.8282 59.6626C76.2732 61.2394 78.3073 62 80.775 62V58ZM87.5397 49.7132L98.6397 45.9332L97.3503 42.1468L86.2503 45.9268L87.5397 49.7132ZM96.5544 45.4273C98.1475 47.0817 101.122 49.82 105.255 49.82V45.82C102.908 45.82 100.962 44.2383 99.4356 42.6527L96.5544 45.4273ZM105.255 49.82C107.732 49.82 109.522 48.5707 110.611 47.6585C110.886 47.4283 111.132 47.2063 111.327 47.03C111.539 46.8385 111.665 46.725 111.763 46.6461C111.897 46.539 111.803 46.6423 111.568 46.7237C111.425 46.7734 111.139 46.847 110.772 46.7921C110.37 46.7319 110.027 46.5401 109.781 46.2942L112.609 43.4658C112.288 43.1449 111.861 42.9105 111.364 42.8361C110.903 42.7672 110.514 42.8554 110.257 42.9444C109.796 43.1046 109.435 43.386 109.26 43.5264C109.05 43.695 108.826 43.8984 108.644 44.0631C108.445 44.2431 108.252 44.4167 108.044 44.5915C107.198 45.2993 106.318 45.82 105.255 45.82V49.82ZM109.703 46.212C109.344 45.8102 109.466 45.5072 109.455 45.9641C109.447 46.2804 109.376 46.7769 109.2 47.4332C108.851 48.7336 108.164 50.398 107.174 52.0347C105.117 55.4347 102.219 58 99.015 58V62C104.391 62 108.333 57.8453 110.596 54.1053C111.766 52.172 112.609 50.1614 113.063 48.4693C113.288 47.6294 113.436 46.8002 113.454 46.0599C113.468 45.4603 113.421 44.3698 112.687 43.548L109.703 46.212ZM99.015 58C96.6146 58 95.3104 57.3582 94.5064 56.6219C93.6477 55.8356 93.1083 54.7167 92.6547 53.3001C92.4254 52.5839 92.248 51.8967 92.0328 51.132C91.8303 50.4124 91.5933 49.6219 91.2719 48.905C90.9505 48.1882 90.4832 47.4003 89.7369 46.7925C88.9442 46.147 87.9791 45.82 86.895 45.82V49.82C87.1309 49.82 87.1858 49.8736 87.2111 49.8942C87.2827 49.9525 87.4313 50.1162 87.6219 50.5412C87.8123 50.9662 87.9832 51.5079 88.1824 52.2157C88.3689 52.8783 88.5871 53.7136 88.8453 54.5199C89.3667 56.1483 90.1698 58.0744 91.8049 59.5718C93.4946 61.1193 95.8354 62 99.015 62V58ZM87.1226 41.8677C88.5247 39.4641 90.1058 37.3844 92.218 35.8942C94.2954 34.4286 97.0192 33.44 100.875 33.44V29.44C96.2708 29.44 92.7246 30.6414 89.912 32.6258C87.1343 34.5856 85.2053 37.2159 83.6674 39.8523L87.1226 41.8677ZM100.875 33.44C103.952 33.44 105.409 34.5565 105.997 35.6429C106.619 36.7929 106.621 38.5456 105.505 40.4721C103.324 44.2338 96.9146 48.197 85.9306 45.8637L85.0994 49.7763C97.2754 52.363 105.686 48.1362 108.965 42.4779C110.579 39.6944 110.971 36.4296 109.515 33.7396C108.026 30.986 104.938 29.44 100.875 29.44V33.44ZM85.9072 45.8588C86.018 45.881 86.1682 45.9312 86.3265 46.0354C86.4871 46.1413 86.6167 46.2771 86.7107 46.4227C86.8889 46.6991 86.885 46.9197 86.8849 46.9267C86.8848 46.945 86.8844 46.8855 86.9289 46.7444C86.9708 46.6113 87.039 46.4493 87.1339 46.2761C87.337 45.9055 87.5769 45.6358 87.734 45.517C87.8081 45.461 87.7941 45.4914 87.6862 45.5186C87.5539 45.5518 87.3199 45.5666 87.0672 45.4583L88.6428 41.7817C87.2471 41.1835 85.9926 41.8188 85.321 42.3268C84.6006 42.8717 84.023 43.6294 83.626 44.3539C83.241 45.0566 82.8925 45.9718 82.8851 46.8946C82.8813 47.3685 82.9674 47.9987 83.349 48.5906C83.7674 49.2393 84.4112 49.6388 85.1228 49.7812L85.9072 45.8588ZM87.0672 45.4583C89.4213 46.4672 91.5958 46.5974 93.4463 46.0273C95.2811 45.462 96.6432 44.2531 97.4365 42.8648C98.2037 41.5222 98.5342 39.8194 97.9641 38.2895C97.3248 36.5736 95.7357 35.56 93.735 35.56V39.56C94.061 39.56 94.1778 39.6336 94.1878 39.64C94.1905 39.6418 94.1992 39.6414 94.2159 39.6861C94.2683 39.8268 94.3063 40.2803 93.9635 40.8802C93.6469 41.4344 93.0814 41.9542 92.2687 42.2046C91.4717 42.4501 90.2787 42.4828 88.6428 41.7817L87.0672 45.4583ZM93.735 35.56C91.6459 35.56 90.0648 36.8495 89.0079 37.9986C87.9253 39.1757 87.011 40.6365 86.3636 41.6216L89.7064 43.8184C90.439 42.7035 91.1447 41.5843 91.9521 40.7064C92.7852 39.8005 93.3641 39.56 93.735 39.56V35.56ZM86.3526 41.6385C86.4673 41.4601 86.6193 41.3051 86.7972 41.1859C86.9713 41.0693 87.1411 41.0061 87.2785 40.9732C87.5343 40.9119 87.704 40.9477 87.7211 40.9512C87.7523 40.9576 87.7336 40.9573 87.6676 40.9264C87.6061 40.8977 87.5299 40.8546 87.4494 40.7988C87.369 40.7431 87.3 40.6855 87.2483 40.635C87.1936 40.5815 87.18 40.5573 87.1899 40.5729C87.194 40.5792 87.2706 40.6963 87.3057 40.9144C87.346 41.1638 87.325 41.5307 87.11 41.889L83.68 39.831C82.9476 41.0516 83.5045 42.2332 83.8176 42.724C84.1819 43.2951 84.6965 43.7576 85.1706 44.0862C85.642 44.4129 86.2554 44.7337 86.9164 44.8694C87.4642 44.9819 88.8851 45.0962 89.7174 43.8015L86.3526 41.6385ZM146.897 44.88L145.41 46.2179L145.421 46.2295L145.431 46.2409L146.897 44.88ZM134.117 37.56L132.424 38.6256L132.426 38.628L134.117 37.56ZM130.817 41.46L128.877 41.9451L128.885 41.9774L128.894 42.0094L130.817 41.46ZM129.857 44.52L128.421 43.1277L128.402 43.1479L128.383 43.1686L129.857 44.52ZM130.397 52.44L128.776 51.269V51.269L130.397 52.44ZM135.557 31.16C138.403 31.16 139.481 32.0773 140.005 32.9883C140.658 34.1238 140.811 35.8533 140.629 38.055C140.541 39.1144 140.386 40.1879 140.227 41.2502C140.072 42.2813 139.906 43.3483 139.825 44.275C139.75 45.1407 139.712 46.207 140.009 47.1212C140.172 47.6197 140.473 48.1984 141.039 48.6453C141.624 49.1081 142.302 49.28 142.937 49.28V45.28C143.024 45.28 143.27 45.3103 143.52 45.5077C143.749 45.6892 143.812 45.8786 143.813 45.8816C143.814 45.8852 143.806 45.8605 143.796 45.798C143.787 45.7361 143.779 45.6502 143.775 45.5357C143.766 45.3023 143.777 45.0016 143.81 44.6225C143.877 43.8505 144.019 42.9356 144.183 41.8432C144.342 40.7821 144.515 39.5906 144.615 38.385C144.808 36.0567 144.773 33.2562 143.473 30.9942C142.043 28.5077 139.401 27.16 135.557 27.16V31.16ZM142.937 49.28C144.987 49.28 146.36 47.931 147.023 47.2282C147.2 47.0414 147.374 46.846 147.487 46.7215C147.623 46.5725 147.683 46.5117 147.71 46.4875C147.781 46.4238 147.59 46.6281 147.208 46.7358C146.971 46.8026 146.627 46.8418 146.241 46.7316C145.852 46.6209 145.579 46.4049 145.41 46.2179L148.383 43.5421C148.148 43.2801 147.802 43.0172 147.336 42.8846C146.872 42.7524 146.447 42.7945 146.123 42.8859C145.566 43.0429 145.18 43.3831 145.032 43.5162C144.742 43.7771 144.284 44.3034 144.115 44.4818C143.504 45.129 143.167 45.28 142.937 45.28V49.28ZM145.431 46.2409C145.189 45.9798 145.139 45.7357 145.133 45.7034C145.125 45.6614 145.138 45.6996 145.126 45.8497C145.101 46.1508 144.999 46.6395 144.771 47.2986C144.322 48.6007 143.487 50.2752 142.337 51.9282C139.95 55.3611 136.722 58 133.457 58V62C138.772 62 143.044 57.9189 145.621 54.2118C146.954 52.2948 147.968 50.2943 148.552 48.6039C148.841 47.7667 149.051 46.9298 149.113 46.1743C149.143 45.7962 149.143 45.3733 149.061 44.95C148.982 44.5361 148.8 43.9902 148.362 43.5191L145.431 46.2409ZM133.457 58C131.915 58 131.049 57.6555 130.551 57.2784C130.068 56.9133 129.709 56.3516 129.505 55.4577C129.062 53.5179 129.486 50.6715 130.305 47.3719C130.703 45.7688 131.163 44.1713 131.597 42.6125C132.023 41.082 132.429 39.5721 132.68 38.2493C132.917 36.9999 133.084 35.5998 132.794 34.4271C132.637 33.7931 132.313 33.0799 131.656 32.5353C130.985 31.9782 130.187 31.78 129.437 31.78V35.78C129.489 35.78 129.311 35.7867 129.102 35.6136C128.909 35.4531 128.89 35.3032 128.911 35.3862C128.975 35.6474 128.979 36.2957 128.75 37.5044C128.534 38.6398 128.172 39.9977 127.743 41.5399C127.322 43.0537 126.839 44.7337 126.423 46.4081C125.615 49.6635 124.926 53.3721 125.606 56.3486C125.963 57.9127 126.725 59.3995 128.138 60.4684C129.534 61.5251 131.339 62 133.457 62V58ZM129.437 31.78C129.58 31.78 129.959 31.8301 130.3 32.1752C130.634 32.5131 130.688 32.8879 130.689 33.0495C130.69 33.2942 130.608 33.1713 130.946 32.7828C131.524 32.1184 132.97 31.16 135.557 31.16V27.16C131.964 27.16 129.36 28.5116 127.928 30.1572C127.261 30.9237 126.684 31.9558 126.689 33.0668C126.691 33.6615 126.872 34.3972 127.456 34.9878C128.047 35.5855 128.799 35.78 129.437 35.78V31.78ZM132.426 38.628C132.163 38.2111 132.213 37.8512 132.218 37.8153C132.226 37.7629 132.226 37.8081 132.151 37.9646C132.005 38.2707 131.722 38.6884 131.37 39.0898C131 39.5107 130.702 39.7443 130.597 39.8039C130.583 39.812 130.618 39.79 130.696 39.7643C130.767 39.7412 130.954 39.6882 131.218 39.7049C131.508 39.7233 131.883 39.8285 132.217 40.1132C132.541 40.3885 132.682 40.7085 132.74 40.9106L128.894 42.0094C128.997 42.369 129.209 42.8052 129.625 43.1595C130.052 43.5232 130.542 43.6701 130.965 43.6969C131.696 43.7433 132.29 43.4428 132.574 43.2811C133.234 42.9057 133.874 42.2993 134.374 41.7302C134.891 41.1416 135.411 40.4193 135.76 39.6904C135.933 39.3294 136.104 38.8834 136.175 38.3978C136.244 37.9288 136.251 37.1939 135.808 36.492L132.426 38.628ZM132.757 40.9749C132.512 39.9926 132.087 38.8497 131.323 37.9146C130.508 36.9172 129.296 36.16 127.697 36.16V40.16C127.897 40.16 128.036 40.2128 128.226 40.4454C128.467 40.7403 128.702 41.2474 128.877 41.9451L132.757 40.9749ZM127.697 36.16C125.764 36.16 124.319 37.2226 123.38 38.4615C122.458 39.6792 121.901 41.2012 121.636 42.6236C121.373 44.0356 121.356 45.5722 121.724 46.8601C122.069 48.0672 123.049 49.82 125.177 49.82V45.82C125.774 45.82 125.743 46.3653 125.57 45.7612C125.42 45.2378 125.381 44.3594 125.568 43.3564C125.753 42.3638 126.119 41.4708 126.568 40.8773C127.002 40.3049 127.38 40.16 127.697 40.16V36.16ZM125.177 49.82C127.072 49.82 128.549 48.7633 129.475 47.9149C130.332 47.1304 131.245 45.966 131.331 45.8714L128.383 43.1686C127.809 43.794 127.522 44.2796 126.774 44.9651C126.095 45.5867 125.562 45.82 125.177 45.82V49.82ZM131.293 45.9123C131.369 45.8332 130.978 46.2918 130.214 46.1834C129.846 46.131 129.58 45.9633 129.424 45.8251C129.281 45.6981 129.222 45.5897 129.215 45.5766C129.207 45.5612 129.261 45.6682 129.32 45.9685C129.374 46.2452 129.415 46.6018 129.434 47.0194C129.473 47.8584 129.417 48.8214 129.27 49.6723C129.111 50.5924 128.891 51.1092 128.776 51.269L132.018 53.611C132.683 52.6908 133.025 51.4301 133.211 50.3533C133.409 49.2074 133.481 47.9541 133.43 46.8356C133.383 45.8116 133.221 44.5672 132.726 43.6603C132.485 43.2188 131.9 42.3827 130.777 42.2231C129.642 42.0619 128.824 42.7118 128.421 43.1277L131.293 45.9123ZM128.776 51.269C127.693 52.7686 126.153 54.4918 124.339 55.8222C122.518 57.1576 120.556 58 118.577 58V62C121.697 62 124.476 60.6824 126.705 59.0478C128.94 57.4082 130.761 55.3514 132.018 53.611L128.776 51.269ZM118.577 58C116.283 58 114.595 56.7805 113.467 54.6139C112.301 52.3758 111.826 49.2292 112.201 45.9475C112.576 42.6779 113.771 39.4965 115.689 37.1768C117.57 34.9016 120.144 33.44 123.497 33.44V29.44C118.81 29.44 115.152 31.5484 112.606 34.6282C110.097 37.6635 108.67 41.6221 108.227 45.4925C107.786 49.3508 108.296 53.3442 109.919 56.4611C111.579 59.6495 114.48 62 118.577 62V58ZM123.497 33.44C127.782 33.44 130.638 35.7881 132.424 38.6256L135.809 36.4944C133.516 32.8519 129.532 29.44 123.497 29.44V33.44ZM151.135 30.48L150.106 32.195L150.186 32.2433L150.271 32.2838L151.135 30.48ZM175.675 44.88L174.188 46.2179L174.199 46.2295L174.209 46.2409L175.675 44.88ZM152.455 37.44L152.037 39.3959L152.05 39.3985L152.455 37.44ZM153.895 35.4L155.808 35.9823L155.816 35.9564L155.823 35.9303L153.895 35.4ZM149.875 34.5L147.917 34.0921L147.916 34.0967L149.875 34.5ZM153.895 35.4L151.96 34.8952L151.956 34.9099L151.952 34.9247L153.895 35.4ZM143.815 53.4L145.054 54.9698L145.061 54.9647L143.815 53.4ZM140.635 50.1L141.764 51.7506L140.635 50.1ZM150.271 32.2838C152.626 33.4116 154.233 33.7438 155.979 33.7249C156.765 33.7164 157.583 33.6351 158.377 33.5702C159.2 33.5029 160.122 33.44 161.275 33.44V29.44C159.968 29.44 158.925 29.5121 158.051 29.5835C157.148 29.6574 156.537 29.7186 155.936 29.7251C154.907 29.7362 153.904 29.5884 151.999 28.6762L150.271 32.2838ZM161.275 33.44C164.712 33.44 166.217 34.3376 166.944 35.2022C167.73 36.1371 168.036 37.5219 168.05 39.3752C168.057 40.2793 167.996 41.1946 167.935 42.1381C167.876 43.039 167.812 44.0194 167.849 44.8908C167.885 45.7162 168.016 46.7935 168.61 47.6975C169.324 48.784 170.46 49.28 171.715 49.28V45.28C171.575 45.28 171.809 45.281 171.953 45.5013C171.978 45.539 171.874 45.3788 171.846 44.7192C171.819 44.1056 171.864 43.3535 171.926 42.3982C171.986 41.4854 172.058 40.4207 172.05 39.3448C172.034 37.2381 171.717 34.6629 170.006 32.6278C168.235 30.5224 165.368 29.44 161.275 29.44V33.44ZM171.715 49.28C173.765 49.28 175.138 47.931 175.801 47.2282C175.978 47.0414 176.152 46.846 176.265 46.7215C176.401 46.5725 176.461 46.5117 176.488 46.4875C176.559 46.4238 176.368 46.6281 175.986 46.7358C175.749 46.8026 175.405 46.8418 175.019 46.7316C174.63 46.6209 174.357 46.4049 174.188 46.2179L177.161 43.5421C176.926 43.2801 176.58 43.0172 176.114 42.8846C175.65 42.7524 175.225 42.7945 174.901 42.8859C174.344 43.0429 173.958 43.3831 173.81 43.5162C173.52 43.7771 173.062 44.3034 172.893 44.4818C172.282 45.129 171.945 45.28 171.715 45.28V49.28ZM174.209 46.2409C173.967 45.9798 173.917 45.7357 173.911 45.7034C173.903 45.6614 173.916 45.6996 173.904 45.8497C173.879 46.1508 173.777 46.6395 173.549 47.2986C173.099 48.6007 172.265 50.2752 171.115 51.9282C168.728 55.3611 165.5 58 162.235 58V62C167.55 62 171.822 57.9189 174.399 54.2118C175.732 52.2948 176.746 50.2943 177.33 48.6039C177.619 47.7667 177.829 46.9298 177.891 46.1743C177.921 45.7962 177.921 45.3733 177.839 44.95C177.76 44.5361 177.578 43.9902 177.14 43.5191L174.209 46.2409ZM162.235 58C160.646 58 159.675 57.694 159.082 57.3305C158.523 56.988 158.156 56.5084 157.92 55.8341C157.391 54.3181 157.587 52.0193 158.216 49.2183C158.519 47.8715 158.893 46.516 159.259 45.1934C159.618 43.898 159.977 42.6013 160.211 41.4712C160.43 40.4129 160.614 39.1792 160.402 38.1288C160.288 37.5607 160.023 36.867 159.413 36.3213C158.778 35.7534 158.01 35.56 157.315 35.56V39.56C157.279 39.56 157.013 39.5419 156.746 39.3027C156.503 39.0858 156.472 38.8742 156.481 38.9196C156.517 39.0964 156.51 39.6159 156.294 40.6613C156.092 41.635 155.773 42.7926 155.404 44.1269C155.043 45.434 154.641 46.8835 154.313 48.3417C153.683 51.1507 153.204 54.4619 154.144 57.1534C154.644 58.5829 155.548 59.8564 156.992 60.741C158.401 61.6047 160.164 62 162.235 62V58ZM157.315 35.56C156.934 35.56 156.531 35.5772 156.155 35.5938C155.765 35.6111 155.391 35.6284 155.006 35.6353C154.236 35.6492 153.52 35.618 152.86 35.4815L152.05 39.3985C153.13 39.622 154.183 39.6508 155.078 39.6347C155.526 39.6266 155.958 39.6064 156.332 39.5899C156.719 39.5728 157.036 39.56 157.315 39.56V35.56ZM152.873 35.4842C150.093 34.8901 148.868 32.6762 148.791 30.2954C148.752 29.0946 149.028 28.0233 149.435 27.3228C149.843 26.618 150.201 26.54 150.355 26.54V22.54C148.289 22.54 146.816 23.8645 145.974 25.3159C145.13 26.7717 144.735 28.6104 144.793 30.4246C144.911 34.0738 146.956 38.3099 152.037 39.3958L152.873 35.4842ZM150.355 26.54C150.629 26.54 150.865 26.6263 151.161 27.0485C151.507 27.541 151.808 28.3505 152.002 29.4245C152.392 31.5925 152.205 34.0008 151.966 34.8697L155.823 35.9303C156.244 34.3992 156.418 31.3775 155.938 28.7155C155.697 27.3745 155.255 25.919 154.435 24.7502C153.565 23.5112 152.211 22.54 150.355 22.54V26.54ZM151.981 34.8177C152.008 34.7293 152.156 34.2585 152.677 33.9091C153.33 33.4713 154.013 33.5712 154.387 33.7207C154.691 33.8425 154.852 34.0088 154.863 34.0194C154.897 34.0528 154.894 34.0563 154.856 34.0035C154.675 33.7584 154.383 33.2329 154.052 32.5338C153.738 31.8695 153.444 31.1693 153.251 30.6598C153.152 30.396 153.096 30.2271 153.075 30.1541C153.055 30.0822 153.092 30.1872 153.105 30.3623C153.11 30.4174 153.116 30.5281 153.104 30.6696C153.095 30.7797 153.061 31.0923 152.87 31.4409C152.639 31.8645 152.142 32.3705 151.356 32.4627C150.72 32.5375 150.26 32.2875 150.106 32.195L152.164 28.765C152 28.6669 151.533 28.4145 150.89 28.49C150.097 28.5831 149.595 29.0929 149.36 29.5235C149.166 29.879 149.13 30.2016 149.119 30.3246C149.106 30.479 149.112 30.6055 149.118 30.6792C149.138 30.9288 149.201 31.1532 149.225 31.2386C149.293 31.4801 149.397 31.7772 149.51 32.0739C149.741 32.6857 150.077 33.4855 150.437 34.2462C150.781 34.9721 151.209 35.7966 151.633 36.3728C151.745 36.5252 151.886 36.701 152.054 36.8665C152.198 37.0093 152.484 37.2676 152.9 37.4341C153.385 37.6284 154.168 37.7258 154.905 37.2313C155.511 36.8251 155.729 36.2432 155.808 35.9823L151.981 34.8177ZM151.833 34.9079C151.818 34.9797 151.796 35.054 151.765 35.1289C151.734 35.2037 151.697 35.2751 151.654 35.3418C151.567 35.4768 151.467 35.5763 151.379 35.6456C151.292 35.7133 151.218 35.7506 151.173 35.7696C151.15 35.7793 151.133 35.7853 151.122 35.7888C151.111 35.7922 151.105 35.7935 151.104 35.7936C151.104 35.7936 151.108 35.7927 151.117 35.7915C151.126 35.7902 151.139 35.7888 151.156 35.7876C151.19 35.7851 151.235 35.7841 151.291 35.7864C151.406 35.7911 151.541 35.8089 151.685 35.8418C151.828 35.8747 151.959 35.9181 152.065 35.964C152.117 35.9866 152.158 36.0075 152.188 36.0249C152.203 36.0334 152.214 36.0405 152.222 36.0457C152.226 36.0483 152.229 36.0503 152.231 36.0517C152.233 36.0532 152.234 36.0539 152.234 36.0539C152.233 36.0538 152.232 36.053 152.23 36.0512C152.228 36.0494 152.225 36.0466 152.221 36.0426C152.212 36.035 152.199 36.0221 152.183 36.0034C152.151 35.9673 152.099 35.9007 152.049 35.7999C151.997 35.6968 151.948 35.5589 151.927 35.3916C151.917 35.3089 151.915 35.2239 151.92 35.1383C151.926 35.0527 151.94 34.9712 151.96 34.8952L155.83 35.9048C156.22 34.4108 155.279 33.3549 154.688 32.8955C154.054 32.4026 153.272 32.1022 152.58 31.9432C151.888 31.7844 151.049 31.7125 150.256 31.8846C149.498 32.0491 148.227 32.603 147.917 34.0921L151.833 34.9079ZM151.952 34.9247C150.593 40.4809 148.201 47.3521 142.569 51.8353L145.061 54.9647C151.789 49.6079 154.437 41.5991 155.838 35.8753L151.952 34.9247ZM142.576 51.8302C142.887 51.5845 143.216 51.5424 143.396 51.5507C143.548 51.5577 143.597 51.5964 143.525 51.5624C143.463 51.5336 143.359 51.4734 143.224 51.3698C143.092 51.2687 142.954 51.1439 142.822 51.0052C142.691 50.8663 142.58 50.7273 142.496 50.6032C142.408 50.4738 142.372 50.3932 142.364 50.3709C142.348 50.3288 142.415 50.4734 142.383 50.7404C142.366 50.8881 142.316 51.0779 142.202 51.2751C142.086 51.4767 141.931 51.6368 141.764 51.7506L139.505 48.4494C138.836 48.9072 138.492 49.5903 138.412 50.2649C138.34 50.8647 138.477 51.3974 138.617 51.7716C138.899 52.5246 139.412 53.2206 139.917 53.7548C140.43 54.2961 141.096 54.842 141.829 55.1851C142.44 55.4711 143.832 55.9345 145.054 54.9698L142.576 51.8302ZM141.764 51.7506C149.303 46.5925 150.983 39.0358 151.834 34.9033L147.916 34.0967C147.087 38.1242 145.647 44.2475 139.505 48.4494L141.764 51.7506ZM188.306 33.44C191.404 33.44 193.438 34.1693 194.703 35.0732C195.953 35.9675 196.555 37.1007 196.726 38.1738C197.092 40.4816 195.629 42.28 193.706 42.28V46.28C198.682 46.28 201.329 41.6584 200.676 37.5462C200.337 35.4093 199.146 33.3325 197.029 31.8193C194.926 30.3157 192.017 29.44 188.306 29.44V33.44ZM193.706 42.28C192.228 42.28 191.752 41.6498 191.607 41.3561C191.503 41.1436 191.537 41.0518 191.521 41.1522C191.514 41.2004 191.472 41.4212 191.26 41.6704C191.009 41.9664 190.593 42.2 190.106 42.2V38.2C189.319 38.2 188.653 38.5611 188.212 39.0802C187.811 39.5525 187.64 40.0921 187.571 40.5228C187.433 41.3882 187.621 42.3164 188.019 43.1239C188.88 44.8702 190.803 46.28 193.706 46.28V42.28ZM190.106 42.2C191.041 42.2 191.988 41.9229 192.7 41.2325C193.422 40.5324 193.712 39.5823 193.607 38.679C193.392 36.8266 191.717 35.62 189.806 35.62V39.62C189.967 39.62 189.95 39.6623 189.86 39.5914C189.781 39.5285 189.662 39.3834 189.634 39.141C189.604 38.8827 189.692 38.5776 189.915 38.3612C190.128 38.1546 190.28 38.2 190.106 38.2V42.2ZM189.806 35.62C188.291 35.62 187.111 36.3277 186.362 37.2984C185.658 38.2119 185.346 39.3292 185.346 40.32H189.346C189.346 40.2308 189.361 40.1183 189.398 40.0035C189.435 39.8894 189.483 39.8011 189.529 39.7416C189.573 39.6854 189.607 39.662 189.629 39.6511C189.645 39.6427 189.693 39.62 189.806 39.62V35.62ZM185.346 40.32C185.346 42.5635 186.321 44.1828 187.657 45.3561C188.886 46.4353 190.466 47.1701 191.709 47.7597C193.079 48.4095 194.111 48.9126 194.841 49.5487C195.463 50.0904 195.786 50.6563 195.786 51.54H199.786C199.786 49.3037 198.803 47.6946 197.468 46.5319C196.241 45.4637 194.662 44.733 193.423 44.1453C192.056 43.4974 191.026 42.991 190.297 42.3508C189.675 41.8047 189.346 41.2265 189.346 40.32H185.346ZM195.786 51.54C195.786 53.3026 194.695 54.8614 192.329 56.0865C189.955 57.3155 186.619 58 183.086 58V62C187.052 62 191.067 61.2445 194.168 59.6385C197.277 58.0286 199.786 55.3574 199.786 51.54H195.786ZM183.086 58C176.685 58 174.052 54.7162 173.497 51.9292C173.201 50.4426 173.468 49.0545 174.065 48.1016C174.628 47.2031 175.498 46.64 176.726 46.64V42.64C174.023 42.64 171.916 43.9969 170.675 45.9784C169.468 47.9055 169.105 50.3574 169.574 52.7108C170.549 57.6038 175.027 62 183.086 62V58ZM176.726 46.64C177.748 46.64 178.234 47.0734 178.362 47.2445C178.469 47.3889 178.285 47.2425 178.331 46.8078C178.36 46.5429 178.488 46.1468 178.855 45.8285C179.216 45.5153 179.596 45.46 179.786 45.46V49.46C180.305 49.46 180.939 49.3166 181.477 48.8492C182.022 48.3766 182.253 47.7603 182.309 47.2309C182.411 46.2675 181.987 45.4161 181.57 44.8555C180.647 43.6166 178.943 42.64 176.726 42.64V46.64ZM179.786 45.46C178.491 45.46 177.551 46.2544 177.15 47.2413C176.798 48.1067 176.867 49.0366 177.111 49.7874C177.628 51.3813 179.162 52.88 181.526 52.88V48.88C181.247 48.88 181.12 48.8029 181.064 48.7598C180.989 48.7027 180.939 48.6234 180.916 48.5526C180.882 48.4484 180.947 48.5233 180.856 48.7474C180.803 48.8773 180.687 49.0717 180.461 49.2333C180.225 49.4026 179.973 49.46 179.786 49.46V45.46ZM181.526 52.88C182.862 52.88 184.053 52.4952 184.904 51.6276C185.736 50.7791 185.986 49.7285 185.986 48.9H181.986C181.986 48.9715 181.966 48.9109 182.048 48.8274C182.085 48.7891 182.1 48.7948 182.043 48.8152C181.979 48.8382 181.821 48.88 181.526 48.88V52.88ZM185.986 48.9C185.986 47.2596 185.007 46.0756 184.189 45.3007C183.381 44.5359 182.266 43.7607 181.446 43.1377C179.554 41.7 178.486 40.5416 178.486 38.94H174.486C174.486 42.6784 177.167 44.91 179.026 46.3223C180.081 47.1243 180.841 47.6391 181.439 48.2055C181.713 48.4649 181.859 48.6531 181.933 48.7803C181.967 48.8388 181.979 48.8738 181.983 48.8877C181.985 48.8948 181.986 48.8983 181.986 48.8988C181.986 48.8993 181.986 48.8994 181.986 48.9H185.986ZM178.486 38.94C178.486 37.625 179.201 36.3193 180.864 35.2543C182.55 34.175 185.104 33.44 188.306 33.44V29.44C184.547 29.44 181.192 30.295 178.707 31.8857C176.201 33.4907 174.486 35.935 174.486 38.94H178.486ZM211.72 39.48L209.893 38.6677L209.887 38.6799L209.882 38.6922L211.72 39.48ZM238.9 44.88L237.414 46.2179L237.424 46.2295L237.435 46.2409L238.9 44.88ZM214 49.38L215.93 49.9062L215.933 49.8951L215.936 49.884L214 49.38ZM205.54 18.7C206.073 18.7 206.796 18.9971 207.13 19.7525C207.37 20.2957 207.239 20.7226 207.224 20.7728C207.173 20.9426 207.161 20.8346 207.451 20.5775C207.955 20.131 209.145 19.46 211.3 19.46V15.46C208.295 15.46 206.125 16.409 204.8 17.5825C204.175 18.1354 203.63 18.8374 203.395 19.6147C203.288 19.9686 203.153 20.6487 203.471 21.369C203.883 22.3016 204.768 22.7 205.54 22.7V18.7ZM211.3 19.46C212.931 19.46 213.881 19.9236 214.496 20.533C215.155 21.186 215.66 22.2381 215.93 23.8081C216.48 27.0079 215.914 31.484 214.942 36.2939C214.464 38.6612 213.905 41.0337 213.374 43.2931C212.846 45.5345 212.341 47.685 211.993 49.5411C211.653 51.3487 211.417 53.087 211.529 54.4338C211.585 55.0967 211.741 55.9211 212.228 56.6253C212.805 57.4605 213.705 57.92 214.72 57.92V53.92C214.986 53.92 215.33 54.0791 215.518 54.3508C215.616 54.4917 215.548 54.4898 215.516 54.1011C215.452 53.3446 215.586 52.0782 215.924 50.2801C216.253 48.5306 216.734 46.4746 217.267 44.2089C217.796 41.9613 218.37 39.5263 218.863 37.0861C219.834 32.281 220.562 27.1421 219.872 23.1306C219.523 21.095 218.775 19.1424 217.312 17.6922C215.805 16.1983 213.765 15.46 211.3 15.46V19.46ZM214.72 57.92C214.417 57.92 214.001 57.8334 213.62 57.5299C213.245 57.2307 213.074 56.8564 213.005 56.5842C212.94 56.3263 212.955 56.1264 212.968 56.0334C212.981 55.9319 213.003 55.872 213.007 55.8593C213.013 55.8452 212.903 56.0934 212.491 56.4525C211.728 57.118 210.096 58 207.22 58V62C210.944 62 213.543 60.842 215.12 59.4675C215.878 58.8066 216.465 58.0348 216.756 57.2557C216.884 56.9112 217.057 56.2939 216.884 55.6064C216.787 55.2227 216.564 54.7607 216.113 54.4017C215.657 54.0384 215.144 53.92 214.72 53.92V57.92ZM207.22 58C205.608 58 204.747 57.5325 204.222 56.96C203.643 56.3274 203.208 55.2763 203.041 53.6549C202.703 50.3649 203.56 45.7704 204.809 40.8413C206.004 36.1277 207.606 30.9569 208.399 27.2606C208.797 25.409 209.073 23.6039 208.932 22.1899C208.861 21.4813 208.664 20.6181 208.094 19.8992C207.444 19.0782 206.513 18.7 205.54 18.7V22.7C205.438 22.7 205.154 22.6289 204.959 22.3835C204.846 22.2403 204.915 22.2214 204.951 22.5875C205.025 23.3227 204.882 24.5878 204.489 26.4207C203.7 30.0931 202.227 34.7473 200.932 39.8587C199.691 44.7546 198.643 49.9851 199.062 54.0639C199.274 56.1269 199.884 58.146 201.274 59.6626C202.719 61.2394 204.753 62 207.22 62V58ZM213.548 40.2923C215.789 35.2493 220.16 33.44 224.5 33.44V29.44C219.001 29.44 212.931 31.8307 209.893 38.6677L213.548 40.2923ZM224.5 33.44C227.938 33.44 229.443 34.3376 230.17 35.2022C230.956 36.1371 231.261 37.5219 231.275 39.3752C231.282 40.2793 231.221 41.1946 231.16 42.1381C231.101 43.039 231.037 44.0194 231.075 44.8908C231.11 45.7162 231.242 46.7935 231.836 47.6975C232.55 48.784 233.685 49.28 234.94 49.28V45.28C234.8 45.28 235.034 45.281 235.179 45.5013C235.204 45.539 235.099 45.3788 235.071 44.7192C235.045 44.1056 235.089 43.3535 235.152 42.3982C235.211 41.4854 235.283 40.4207 235.275 39.3448C235.259 37.2381 234.942 34.6629 233.231 32.6278C231.461 30.5224 228.593 29.44 224.5 29.44V33.44ZM234.94 49.28C236.99 49.28 238.363 47.931 239.027 47.2282C239.203 47.0414 239.377 46.846 239.491 46.7215C239.626 46.5725 239.687 46.5117 239.713 46.4875C239.784 46.4238 239.594 46.6281 239.211 46.7358C238.974 46.8026 238.631 46.8418 238.244 46.7316C237.856 46.6209 237.582 46.4049 237.414 46.2179L240.387 43.5421C240.151 43.2801 239.805 43.0172 239.34 42.8846C238.876 42.7524 238.45 42.7945 238.126 42.8859C237.569 43.0429 237.183 43.3831 237.035 43.5162C236.746 43.7771 236.287 44.3034 236.119 44.4818C235.507 45.129 235.171 45.28 234.94 45.28V49.28ZM237.435 46.2409C237.192 45.9798 237.143 45.7357 237.137 45.7034C237.128 45.6614 237.141 45.6996 237.129 45.8497C237.105 46.1508 237.002 46.6395 236.774 47.2986C236.325 48.6007 235.49 50.2752 234.341 51.9282C231.954 55.3611 228.725 58 225.46 58V62C230.775 62 235.047 57.9189 237.625 54.2118C238.958 52.2948 239.972 50.2943 240.556 48.6039C240.845 47.7667 241.055 46.9298 241.116 46.1743C241.147 45.7962 241.146 45.3733 241.065 44.95C240.986 44.5361 240.803 43.9902 240.366 43.5191L237.435 46.2409ZM225.46 58C223.871 58 222.9 57.694 222.307 57.3305C221.748 56.988 221.381 56.5084 221.146 55.8341C220.616 54.3181 220.813 52.0193 221.442 49.2183C221.744 47.8715 222.119 46.516 222.485 45.1934C222.843 43.898 223.203 42.6013 223.436 41.4712C223.655 40.4129 223.84 39.1792 223.628 38.1288C223.513 37.5607 223.248 36.867 222.638 36.3213C222.003 35.7534 221.236 35.56 220.54 35.56V39.56C220.505 39.56 220.239 39.5419 219.971 39.3027C219.729 39.0858 219.697 38.8742 219.707 38.9196C219.742 39.0964 219.735 39.6159 219.519 40.6613C219.318 41.635 218.999 42.7926 218.63 44.1269C218.268 45.434 217.866 46.8835 217.539 48.3417C216.908 51.1507 216.429 54.4619 217.37 57.1534C217.869 58.5829 218.774 59.8564 220.217 60.741C221.626 61.6047 223.389 62 225.46 62V58ZM220.54 35.56C219.078 35.56 217.936 36.3785 217.137 37.2225C216.322 38.085 215.625 39.2196 215.029 40.4204C213.829 42.836 212.828 45.9438 212.065 48.876L215.936 49.884C216.672 47.0562 217.591 44.254 218.612 42.1996C219.125 41.1654 219.614 40.425 220.043 39.9712C220.49 39.499 220.652 39.56 220.54 39.56V35.56ZM212.071 48.8538C212.089 48.7879 212.16 48.5324 212.373 48.2547C212.623 47.9286 213.155 47.4848 213.949 47.5006C214.613 47.5138 215.034 47.851 215.164 47.9642C215.322 48.1027 215.409 48.229 215.432 48.2629C215.492 48.3514 215.441 48.2917 215.301 47.8976C215.063 47.2271 214.757 46.1451 214.468 44.9332C214.181 43.7301 213.926 42.4686 213.777 41.4531C213.702 40.9415 213.659 40.5305 213.647 40.2379C213.641 40.0909 213.644 40.0079 213.646 39.9758C213.652 39.9103 213.652 40.0509 213.559 40.2678L209.882 38.6922C209.722 39.0666 209.677 39.4327 209.66 39.6509C209.639 39.9024 209.64 40.1614 209.65 40.4047C209.671 40.8928 209.734 41.4563 209.819 42.035C209.991 43.2002 210.272 44.5824 210.577 45.8618C210.881 47.1324 211.224 48.3716 211.532 49.2368C211.664 49.6105 211.86 50.1222 212.121 50.5076C212.195 50.6158 212.329 50.7991 212.532 50.9764C212.706 51.1283 213.168 51.4859 213.87 51.4998C214.701 51.5163 215.268 51.0537 215.548 50.6879C215.791 50.3705 215.889 50.0546 215.93 49.9062L212.071 48.8538Z" fill="#FF7A00" mask="url(#path-2-outside-1_10_430)"/>
</svg>
